<mxfile host="app.diagrams.net" agent="Mozilla/5.0 (Macintosh; Intel Mac OS X 10_15_7) AppleWebKit/537.36 (KHTML, like Gecko) Chrome/126.0.0.0 Safari/537.36" version="24.7.7">
  <diagram name="Page-1" id="6ovXW260JZMV4VgRhOEn">
    <mxGraphModel dx="1430" dy="797" grid="1" gridSize="10" guides="1" tooltips="1" connect="1" arrows="1" fold="1" page="1" pageScale="1" pageWidth="850" pageHeight="1100" math="0" shadow="0">
      <root>
        <mxCell id="0" />
        <mxCell id="1" parent="0" />
        <mxCell id="WoF18aefavJoUWqvMgJQ-42" value="" style="shape=waypoint;sketch=0;fillStyle=solid;size=6;pointerEvents=1;points=[];fillColor=none;resizable=0;rotatable=0;perimeter=centerPerimeter;snapToPoint=1;" parent="1" vertex="1">
          <mxGeometry x="270" y="238.5" width="20" height="20" as="geometry" />
        </mxCell>
        <mxCell id="WoF18aefavJoUWqvMgJQ-43" value="" style="endArrow=none;html=1;rounded=0;exitX=0.25;exitY=0.5;exitDx=0;exitDy=0;exitPerimeter=0;fillColor=#e51400;strokeColor=#FF0000;strokeWidth=3;" parent="1" source="G7UtKUlCrea1HoJt_iq_-33" target="WoF18aefavJoUWqvMgJQ-42" edge="1">
          <mxGeometry width="50" height="50" relative="1" as="geometry">
            <mxPoint x="540" y="513" as="sourcePoint" />
            <mxPoint x="590" y="463" as="targetPoint" />
          </mxGeometry>
        </mxCell>
        <mxCell id="WoF18aefavJoUWqvMgJQ-53" value="" style="shape=waypoint;sketch=0;fillStyle=solid;size=6;pointerEvents=1;points=[];fillColor=none;resizable=0;rotatable=0;perimeter=centerPerimeter;snapToPoint=1;" parent="1" vertex="1">
          <mxGeometry x="310" y="203" width="20" height="20" as="geometry" />
        </mxCell>
        <mxCell id="WoF18aefavJoUWqvMgJQ-57" value="" style="endArrow=none;html=1;rounded=0;exitX=-0.108;exitY=0.967;exitDx=0;exitDy=0;exitPerimeter=0;entryX=0.5;entryY=1;entryDx=0;entryDy=0;fillColor=#e51400;strokeColor=#FF0000;strokeWidth=3;" parent="1" source="WoF18aefavJoUWqvMgJQ-53" target="XM5FjCuDmPm9ycIdQVT2-14" edge="1">
          <mxGeometry width="50" height="50" relative="1" as="geometry">
            <mxPoint x="610" y="462" as="sourcePoint" />
            <mxPoint x="320" y="172" as="targetPoint" />
          </mxGeometry>
        </mxCell>
        <mxCell id="WoF18aefavJoUWqvMgJQ-58" value="" style="endArrow=none;html=1;rounded=0;exitX=0.892;exitY=0.525;exitDx=0;exitDy=0;exitPerimeter=0;entryX=0.142;entryY=0.592;entryDx=0;entryDy=0;entryPerimeter=0;fillColor=#e51400;strokeColor=#FF0000;strokeWidth=3;" parent="1" source="WoF18aefavJoUWqvMgJQ-42" target="WoF18aefavJoUWqvMgJQ-53" edge="1">
          <mxGeometry width="50" height="50" relative="1" as="geometry">
            <mxPoint x="610" y="462" as="sourcePoint" />
            <mxPoint x="660" y="412" as="targetPoint" />
          </mxGeometry>
        </mxCell>
        <mxCell id="WoF18aefavJoUWqvMgJQ-59" value="DC charge jack (F)" style="text;html=1;align=center;verticalAlign=middle;resizable=0;points=[];autosize=1;strokeColor=none;fillColor=none;" parent="1" vertex="1">
          <mxGeometry x="208" y="142" width="120" height="30" as="geometry" />
        </mxCell>
        <mxCell id="WoF18aefavJoUWqvMgJQ-61" value="" style="shape=waypoint;sketch=0;fillStyle=solid;size=6;pointerEvents=1;points=[];fillColor=none;resizable=0;rotatable=0;perimeter=centerPerimeter;snapToPoint=1;" parent="1" vertex="1">
          <mxGeometry x="350" y="202" width="20" height="20" as="geometry" />
        </mxCell>
        <mxCell id="WoF18aefavJoUWqvMgJQ-64" value="" style="endArrow=none;html=1;rounded=0;strokeWidth=3;exitX=0.25;exitY=0.5;exitDx=0;exitDy=0;exitPerimeter=0;" parent="1" source="G7UtKUlCrea1HoJt_iq_-34" target="WoF18aefavJoUWqvMgJQ-44" edge="1">
          <mxGeometry width="50" height="50" relative="1" as="geometry">
            <mxPoint x="140" y="291" as="sourcePoint" />
            <mxPoint x="280" y="292" as="targetPoint" />
            <Array as="points" />
          </mxGeometry>
        </mxCell>
        <mxCell id="WoF18aefavJoUWqvMgJQ-44" value="" style="shape=waypoint;sketch=0;fillStyle=solid;size=6;pointerEvents=1;points=[];fillColor=none;resizable=0;rotatable=0;perimeter=centerPerimeter;snapToPoint=1;" parent="1" vertex="1">
          <mxGeometry x="270" y="281" width="20" height="20" as="geometry" />
        </mxCell>
        <mxCell id="WoF18aefavJoUWqvMgJQ-67" value="" style="endArrow=none;html=1;rounded=0;strokeWidth=3;" parent="1" target="WoF18aefavJoUWqvMgJQ-61" edge="1">
          <mxGeometry width="50" height="50" relative="1" as="geometry">
            <mxPoint x="280" y="291" as="sourcePoint" />
            <mxPoint x="660" y="412" as="targetPoint" />
          </mxGeometry>
        </mxCell>
        <mxCell id="WoF18aefavJoUWqvMgJQ-68" value="" style="endArrow=none;html=1;rounded=0;exitX=0.683;exitY=0.558;exitDx=0;exitDy=0;exitPerimeter=0;entryX=0.5;entryY=0;entryDx=0;entryDy=0;strokeWidth=3;" parent="1" source="WoF18aefavJoUWqvMgJQ-61" target="XM5FjCuDmPm9ycIdQVT2-14" edge="1">
          <mxGeometry width="50" height="50" relative="1" as="geometry">
            <mxPoint x="610" y="462" as="sourcePoint" />
            <mxPoint x="333.5" y="158.5" as="targetPoint" />
            <Array as="points">
              <mxPoint x="360" y="159" />
            </Array>
          </mxGeometry>
        </mxCell>
        <mxCell id="WoF18aefavJoUWqvMgJQ-92" value="" style="shape=waypoint;sketch=0;fillStyle=solid;size=6;pointerEvents=1;points=[];fillColor=none;resizable=0;rotatable=0;perimeter=centerPerimeter;snapToPoint=1;" parent="1" vertex="1">
          <mxGeometry x="310" y="328" width="20" height="20" as="geometry" />
        </mxCell>
        <mxCell id="WoF18aefavJoUWqvMgJQ-94" value="" style="shape=waypoint;sketch=0;fillStyle=solid;size=6;pointerEvents=1;points=[];fillColor=none;resizable=0;rotatable=0;perimeter=centerPerimeter;snapToPoint=1;" parent="1" vertex="1">
          <mxGeometry x="350" y="327" width="20" height="20" as="geometry" />
        </mxCell>
        <mxCell id="WoF18aefavJoUWqvMgJQ-95" value="" style="endArrow=none;html=1;rounded=0;jumpStyle=arc;strokeWidth=3;fillColor=#e51400;strokeColor=#FF0000;entryX=0.433;entryY=0.717;entryDx=0;entryDy=0;entryPerimeter=0;exitX=0.392;exitY=1.025;exitDx=0;exitDy=0;exitPerimeter=0;" parent="1" source="WoF18aefavJoUWqvMgJQ-94" target="WoF18aefavJoUWqvMgJQ-42" edge="1">
          <mxGeometry width="50" height="50" relative="1" as="geometry">
            <mxPoint x="380" y="250" as="sourcePoint" />
            <mxPoint x="370" y="342" as="targetPoint" />
            <Array as="points">
              <mxPoint x="360" y="250" />
            </Array>
          </mxGeometry>
        </mxCell>
        <mxCell id="WoF18aefavJoUWqvMgJQ-96" value="" style="endArrow=none;html=1;rounded=0;exitX=0.808;exitY=0.45;exitDx=0;exitDy=0;exitPerimeter=0;strokeWidth=3;entryX=-0.15;entryY=0.3;entryDx=0;entryDy=0;entryPerimeter=0;jumpStyle=arc;" parent="1" source="WoF18aefavJoUWqvMgJQ-92" target="WoF18aefavJoUWqvMgJQ-44" edge="1">
          <mxGeometry width="50" height="50" relative="1" as="geometry">
            <mxPoint x="330" y="342" as="sourcePoint" />
            <mxPoint x="290" y="302" as="targetPoint" />
            <Array as="points">
              <mxPoint x="320" y="290" />
            </Array>
          </mxGeometry>
        </mxCell>
        <mxCell id="WoF18aefavJoUWqvMgJQ-97" value="12V Power Assembly" style="text;html=1;align=center;verticalAlign=middle;resizable=0;points=[];autosize=1;strokeColor=none;fillColor=none;fontStyle=1;fontSize=15;" parent="1" vertex="1">
          <mxGeometry x="37.86" y="30" width="170" height="30" as="geometry" />
        </mxCell>
        <mxCell id="G7UtKUlCrea1HoJt_iq_-2" value="" style="endArrow=none;html=1;rounded=0;exitX=0.2;exitY=1;exitDx=0;exitDy=0;exitPerimeter=0;entryX=1;entryY=0.61;entryDx=0;entryDy=0;strokeWidth=3;fillColor=#e51400;strokeColor=#FF0000;" parent="1" source="WoF18aefavJoUWqvMgJQ-94" target="G7UtKUlCrea1HoJt_iq_-4" edge="1">
          <mxGeometry width="50" height="50" relative="1" as="geometry">
            <mxPoint x="820" y="650" as="sourcePoint" />
            <mxPoint x="355.7399999999998" y="382" as="targetPoint" />
          </mxGeometry>
        </mxCell>
        <mxCell id="G7UtKUlCrea1HoJt_iq_-3" value="" style="endArrow=none;html=1;rounded=0;exitX=0.9;exitY=0.4;exitDx=0;exitDy=0;exitPerimeter=0;entryX=1;entryY=0.05;entryDx=0;entryDy=0;strokeWidth=3;" parent="1" source="WoF18aefavJoUWqvMgJQ-92" target="G7UtKUlCrea1HoJt_iq_-4" edge="1">
          <mxGeometry width="50" height="50" relative="1" as="geometry">
            <mxPoint x="820" y="650" as="sourcePoint" />
            <mxPoint x="321.02" y="382" as="targetPoint" />
            <Array as="points">
              <mxPoint x="321" y="360" />
            </Array>
          </mxGeometry>
        </mxCell>
        <mxCell id="G7UtKUlCrea1HoJt_iq_-4" value="" style="pointerEvents=1;verticalLabelPosition=bottom;shadow=0;dashed=0;align=center;html=1;verticalAlign=top;shape=mxgraph.electrical.electro-mechanical.dpdt3;elSwitchState=1;rotation=-90;" parent="1" vertex="1">
          <mxGeometry x="320" y="384" width="58" height="62" as="geometry" />
        </mxCell>
        <mxCell id="G7UtKUlCrea1HoJt_iq_-5" value="&lt;div&gt;internal battery&lt;/div&gt;bypass&amp;nbsp;&lt;span style=&quot;background-color: initial;&quot;&gt;switch&lt;/span&gt;" style="text;html=1;align=right;verticalAlign=middle;resizable=0;points=[];autosize=1;strokeColor=none;fillColor=none;" parent="1" vertex="1">
          <mxGeometry x="200" y="395" width="100" height="40" as="geometry" />
        </mxCell>
        <mxCell id="G7UtKUlCrea1HoJt_iq_-33" value="" style="shape=waypoint;sketch=0;size=6;pointerEvents=1;points=[];fillColor=none;resizable=0;rotatable=0;perimeter=centerPerimeter;snapToPoint=1;" parent="1" vertex="1">
          <mxGeometry x="196" y="238.5" width="20" height="20" as="geometry" />
        </mxCell>
        <mxCell id="G7UtKUlCrea1HoJt_iq_-35" value="" style="endArrow=none;html=1;rounded=0;strokeWidth=3;" parent="1" target="G7UtKUlCrea1HoJt_iq_-34" edge="1">
          <mxGeometry width="50" height="50" relative="1" as="geometry">
            <mxPoint x="206" y="291" as="sourcePoint" />
            <mxPoint x="346" y="291" as="targetPoint" />
            <Array as="points" />
          </mxGeometry>
        </mxCell>
        <mxCell id="G7UtKUlCrea1HoJt_iq_-34" value="" style="shape=waypoint;sketch=0;size=6;pointerEvents=1;points=[];fillColor=none;resizable=0;rotatable=0;perimeter=centerPerimeter;snapToPoint=1;" parent="1" vertex="1">
          <mxGeometry x="196" y="281" width="20" height="20" as="geometry" />
        </mxCell>
        <mxCell id="G7UtKUlCrea1HoJt_iq_-40" value="" style="shape=image;html=1;verticalAlign=top;verticalLabelPosition=bottom;labelBackgroundColor=#ffffff;imageAspect=0;aspect=fixed;image=https://cdn1.iconfinder.com/data/icons/bootstrap-vol-3/16/input-cursor-128.png;rotation=-180;" parent="1" vertex="1">
          <mxGeometry x="132.5" y="254" width="27" height="27" as="geometry" />
        </mxCell>
        <mxCell id="G7UtKUlCrea1HoJt_iq_-41" value="" style="endArrow=none;html=1;rounded=0;fillColor=#e51400;strokeColor=#FF0000;strokeWidth=3;" parent="1" target="G7UtKUlCrea1HoJt_iq_-33" edge="1">
          <mxGeometry width="50" height="50" relative="1" as="geometry">
            <mxPoint x="146" y="249" as="sourcePoint" />
            <mxPoint x="174" y="227" as="targetPoint" />
          </mxGeometry>
        </mxCell>
        <mxCell id="G7UtKUlCrea1HoJt_iq_-44" value="&amp;nbsp;+12V&amp;nbsp;" style="edgeLabel;html=1;align=center;verticalAlign=middle;resizable=0;points=[];" parent="G7UtKUlCrea1HoJt_iq_-41" connectable="0" vertex="1">
          <mxGeometry x="-0.0662" y="2" relative="1" as="geometry">
            <mxPoint as="offset" />
          </mxGeometry>
        </mxCell>
        <mxCell id="G7UtKUlCrea1HoJt_iq_-45" value="" style="endArrow=none;html=1;rounded=0;strokeWidth=3;entryX=0.85;entryY=0.9;entryDx=0;entryDy=0;entryPerimeter=0;" parent="1" target="G7UtKUlCrea1HoJt_iq_-34" edge="1">
          <mxGeometry width="50" height="50" relative="1" as="geometry">
            <mxPoint x="146" y="291" as="sourcePoint" />
            <mxPoint x="236" y="328" as="targetPoint" />
            <Array as="points" />
          </mxGeometry>
        </mxCell>
        <mxCell id="G7UtKUlCrea1HoJt_iq_-46" value="&amp;nbsp;-12V&amp;nbsp;" style="edgeLabel;html=1;align=center;verticalAlign=middle;resizable=0;points=[];" parent="G7UtKUlCrea1HoJt_iq_-45" connectable="0" vertex="1">
          <mxGeometry x="-0.2333" y="1" relative="1" as="geometry">
            <mxPoint as="offset" />
          </mxGeometry>
        </mxCell>
        <mxCell id="G7UtKUlCrea1HoJt_iq_-47" value="DC battery&lt;div&gt;power / charge&lt;/div&gt;&lt;div&gt;plug (M)&lt;/div&gt;" style="text;html=1;align=left;verticalAlign=middle;resizable=0;points=[];autosize=1;strokeColor=none;fillColor=none;" parent="1" vertex="1">
          <mxGeometry x="146" y="300" width="100" height="60" as="geometry" />
        </mxCell>
        <mxCell id="G7UtKUlCrea1HoJt_iq_-69" value="" style="endArrow=none;html=1;rounded=0;exitX=0.2;exitY=1;exitDx=0;exitDy=0;exitPerimeter=0;entryX=0;entryY=0.23;entryDx=0;entryDy=0;strokeWidth=3;fillColor=#e51400;strokeColor=#0D0000;" parent="1" source="G7UtKUlCrea1HoJt_iq_-66" target="G7UtKUlCrea1HoJt_iq_-4" edge="1">
          <mxGeometry width="50" height="50" relative="1" as="geometry">
            <mxPoint x="-120" y="240" as="sourcePoint" />
            <mxPoint x="344.17999999999984" y="504" as="targetPoint" />
          </mxGeometry>
        </mxCell>
        <mxCell id="G7UtKUlCrea1HoJt_iq_-70" value="" style="endArrow=none;html=1;rounded=0;exitX=0.9;exitY=0.4;exitDx=0;exitDy=0;exitPerimeter=0;entryX=0;entryY=0.79;entryDx=0;entryDy=0;strokeWidth=3;fillColor=#e51400;strokeColor=#FF0000;" parent="1" source="G7UtKUlCrea1HoJt_iq_-64" target="G7UtKUlCrea1HoJt_iq_-4" edge="1">
          <mxGeometry width="50" height="50" relative="1" as="geometry">
            <mxPoint x="-120" y="240" as="sourcePoint" />
            <mxPoint x="378.9000000000001" y="504" as="targetPoint" />
            <Array as="points" />
          </mxGeometry>
        </mxCell>
        <mxCell id="G7UtKUlCrea1HoJt_iq_-51" value="" style="shape=waypoint;sketch=0;fillStyle=solid;size=6;pointerEvents=1;points=[];fillColor=none;resizable=0;rotatable=0;perimeter=centerPerimeter;snapToPoint=1;rotation=-180;" parent="1" vertex="1">
          <mxGeometry x="375" y="586" width="20" height="20" as="geometry" />
        </mxCell>
        <mxCell id="G7UtKUlCrea1HoJt_iq_-52" value="" style="endArrow=none;html=1;rounded=0;exitX=0.25;exitY=0.5;exitDx=0;exitDy=0;exitPerimeter=0;fillColor=#e51400;strokeColor=#0D0000;strokeWidth=3;" parent="1" source="G7UtKUlCrea1HoJt_iq_-73" target="G7UtKUlCrea1HoJt_iq_-51" edge="1">
          <mxGeometry width="50" height="50" relative="1" as="geometry">
            <mxPoint x="125" y="331" as="sourcePoint" />
            <mxPoint x="75" y="381" as="targetPoint" />
          </mxGeometry>
        </mxCell>
        <mxCell id="G7UtKUlCrea1HoJt_iq_-53" value="" style="shape=waypoint;sketch=0;fillStyle=solid;size=6;pointerEvents=1;points=[];fillColor=none;resizable=0;rotatable=0;perimeter=centerPerimeter;snapToPoint=1;rotation=-180;" parent="1" vertex="1">
          <mxGeometry x="335" y="621" width="20" height="20" as="geometry" />
        </mxCell>
        <mxCell id="G7UtKUlCrea1HoJt_iq_-54" value="&lt;div&gt;OUT&lt;/div&gt;connector" style="text;html=1;align=center;verticalAlign=middle;resizable=0;points=[];autosize=1;strokeColor=none;fillColor=none;rotation=0;" parent="1" vertex="1">
          <mxGeometry x="220" y="611" width="80" height="40" as="geometry" />
        </mxCell>
        <mxCell id="G7UtKUlCrea1HoJt_iq_-56" value="" style="endArrow=none;html=1;rounded=0;exitX=-0.108;exitY=0.967;exitDx=0;exitDy=0;exitPerimeter=0;fillColor=#e51400;strokeColor=#0D0000;strokeWidth=3;" parent="1" source="G7UtKUlCrea1HoJt_iq_-53" edge="1">
          <mxGeometry width="50" height="50" relative="1" as="geometry">
            <mxPoint x="55" y="382" as="sourcePoint" />
            <mxPoint x="344" y="680" as="targetPoint" />
          </mxGeometry>
        </mxCell>
        <mxCell id="G7UtKUlCrea1HoJt_iq_-57" value="" style="endArrow=none;html=1;rounded=0;exitX=0.892;exitY=0.525;exitDx=0;exitDy=0;exitPerimeter=0;entryX=0.142;entryY=0.592;entryDx=0;entryDy=0;entryPerimeter=0;fillColor=#e51400;strokeColor=#0D0000;strokeWidth=3;" parent="1" source="G7UtKUlCrea1HoJt_iq_-51" target="G7UtKUlCrea1HoJt_iq_-53" edge="1">
          <mxGeometry width="50" height="50" relative="1" as="geometry">
            <mxPoint x="55" y="382" as="sourcePoint" />
            <mxPoint x="5" y="432" as="targetPoint" />
          </mxGeometry>
        </mxCell>
        <mxCell id="G7UtKUlCrea1HoJt_iq_-58" value="DC secondary&lt;br&gt;battery port (F)" style="text;html=1;align=center;verticalAlign=middle;resizable=0;points=[];autosize=1;strokeColor=none;fillColor=none;rotation=0;" parent="1" vertex="1">
          <mxGeometry x="341" y="646" width="100" height="40" as="geometry" />
        </mxCell>
        <mxCell id="G7UtKUlCrea1HoJt_iq_-59" value="" style="shape=waypoint;sketch=0;fillStyle=solid;size=6;pointerEvents=1;points=[];fillColor=none;resizable=0;rotatable=0;perimeter=centerPerimeter;snapToPoint=1;rotation=-180;" parent="1" vertex="1">
          <mxGeometry x="300" y="621" width="20" height="20" as="geometry" />
        </mxCell>
        <mxCell id="G7UtKUlCrea1HoJt_iq_-60" value="" style="endArrow=none;html=1;rounded=0;strokeWidth=3;exitX=0.25;exitY=0.5;exitDx=0;exitDy=0;exitPerimeter=0;fillColor=#e51400;strokeColor=#FF0000;" parent="1" source="G7UtKUlCrea1HoJt_iq_-75" target="G7UtKUlCrea1HoJt_iq_-61" edge="1">
          <mxGeometry width="50" height="50" relative="1" as="geometry">
            <mxPoint x="525" y="553" as="sourcePoint" />
            <mxPoint x="385" y="552" as="targetPoint" />
            <Array as="points" />
          </mxGeometry>
        </mxCell>
        <mxCell id="G7UtKUlCrea1HoJt_iq_-61" value="" style="shape=waypoint;sketch=0;fillStyle=solid;size=6;pointerEvents=1;points=[];fillColor=none;resizable=0;rotatable=0;perimeter=centerPerimeter;snapToPoint=1;rotation=-180;" parent="1" vertex="1">
          <mxGeometry x="375" y="543" width="20" height="20" as="geometry" />
        </mxCell>
        <mxCell id="G7UtKUlCrea1HoJt_iq_-62" value="" style="endArrow=none;html=1;rounded=0;strokeWidth=3;fillColor=#e51400;strokeColor=#B20000;" parent="1" target="G7UtKUlCrea1HoJt_iq_-59" edge="1">
          <mxGeometry width="50" height="50" relative="1" as="geometry">
            <mxPoint x="385" y="553" as="sourcePoint" />
            <mxPoint x="5" y="432" as="targetPoint" />
          </mxGeometry>
        </mxCell>
        <mxCell id="G7UtKUlCrea1HoJt_iq_-63" value="" style="endArrow=none;html=1;rounded=0;exitX=0.683;exitY=0.558;exitDx=0;exitDy=0;exitPerimeter=0;strokeWidth=3;fillColor=#e51400;strokeColor=#B20000;" parent="1" source="G7UtKUlCrea1HoJt_iq_-59" edge="1">
          <mxGeometry width="50" height="50" relative="1" as="geometry">
            <mxPoint x="55" y="382" as="sourcePoint" />
            <mxPoint x="310" y="680" as="targetPoint" />
            <Array as="points">
              <mxPoint x="310" y="670" />
            </Array>
          </mxGeometry>
        </mxCell>
        <mxCell id="G7UtKUlCrea1HoJt_iq_-64" value="" style="shape=waypoint;sketch=0;fillStyle=solid;size=6;pointerEvents=1;points=[];fillColor=none;resizable=0;rotatable=0;perimeter=centerPerimeter;snapToPoint=1;rotation=-180;" parent="1" vertex="1">
          <mxGeometry x="335" y="496" width="20" height="20" as="geometry" />
        </mxCell>
        <mxCell id="G7UtKUlCrea1HoJt_iq_-65" value="OUT&lt;br&gt;connectors" style="text;html=1;align=center;verticalAlign=middle;resizable=0;points=[];autosize=1;strokeColor=none;fillColor=none;rotation=0;" parent="1" vertex="1">
          <mxGeometry x="345" y="487" width="80" height="40" as="geometry" />
        </mxCell>
        <mxCell id="G7UtKUlCrea1HoJt_iq_-66" value="" style="shape=waypoint;sketch=0;fillStyle=solid;size=6;pointerEvents=1;points=[];fillColor=none;resizable=0;rotatable=0;perimeter=centerPerimeter;snapToPoint=1;rotation=-180;" parent="1" vertex="1">
          <mxGeometry x="295" y="497" width="20" height="20" as="geometry" />
        </mxCell>
        <mxCell id="G7UtKUlCrea1HoJt_iq_-67" value="" style="endArrow=none;html=1;rounded=0;jumpStyle=arc;strokeWidth=3;fillColor=#e51400;strokeColor=#0D0000;entryX=0.433;entryY=0.717;entryDx=0;entryDy=0;entryPerimeter=0;exitX=0.392;exitY=1.025;exitDx=0;exitDy=0;exitPerimeter=0;" parent="1" source="G7UtKUlCrea1HoJt_iq_-66" target="G7UtKUlCrea1HoJt_iq_-51" edge="1">
          <mxGeometry width="50" height="50" relative="1" as="geometry">
            <mxPoint x="285" y="594" as="sourcePoint" />
            <mxPoint x="295" y="502" as="targetPoint" />
            <Array as="points">
              <mxPoint x="305" y="594" />
            </Array>
          </mxGeometry>
        </mxCell>
        <mxCell id="G7UtKUlCrea1HoJt_iq_-68" value="" style="endArrow=none;html=1;rounded=0;exitX=0.808;exitY=0.45;exitDx=0;exitDy=0;exitPerimeter=0;strokeWidth=3;entryX=-0.15;entryY=0.3;entryDx=0;entryDy=0;entryPerimeter=0;jumpStyle=arc;fillColor=#e51400;strokeColor=#FF0000;" parent="1" source="G7UtKUlCrea1HoJt_iq_-64" target="G7UtKUlCrea1HoJt_iq_-61" edge="1">
          <mxGeometry width="50" height="50" relative="1" as="geometry">
            <mxPoint x="335" y="502" as="sourcePoint" />
            <mxPoint x="375" y="542" as="targetPoint" />
            <Array as="points">
              <mxPoint x="345" y="554" />
            </Array>
          </mxGeometry>
        </mxCell>
        <mxCell id="G7UtKUlCrea1HoJt_iq_-73" value="" style="shape=waypoint;sketch=0;size=6;pointerEvents=1;points=[];fillColor=none;resizable=0;rotatable=0;perimeter=centerPerimeter;snapToPoint=1;rotation=-180;" parent="1" vertex="1">
          <mxGeometry x="475" y="586" width="20" height="20" as="geometry" />
        </mxCell>
        <mxCell id="G7UtKUlCrea1HoJt_iq_-74" value="" style="endArrow=none;html=1;rounded=0;strokeWidth=3;" parent="1" target="G7UtKUlCrea1HoJt_iq_-75" edge="1">
          <mxGeometry width="50" height="50" relative="1" as="geometry">
            <mxPoint x="485" y="553" as="sourcePoint" />
            <mxPoint x="345" y="553" as="targetPoint" />
            <Array as="points" />
          </mxGeometry>
        </mxCell>
        <mxCell id="G7UtKUlCrea1HoJt_iq_-75" value="" style="shape=waypoint;sketch=0;size=6;pointerEvents=1;points=[];fillColor=none;resizable=0;rotatable=0;perimeter=centerPerimeter;snapToPoint=1;rotation=-180;" parent="1" vertex="1">
          <mxGeometry x="475" y="543" width="20" height="20" as="geometry" />
        </mxCell>
        <mxCell id="G7UtKUlCrea1HoJt_iq_-76" value="" style="shape=image;html=1;verticalAlign=top;verticalLabelPosition=bottom;labelBackgroundColor=#ffffff;imageAspect=0;aspect=fixed;image=https://cdn1.iconfinder.com/data/icons/bootstrap-vol-3/16/input-cursor-128.png;rotation=-360;" parent="1" vertex="1">
          <mxGeometry x="532" y="563" width="27" height="27" as="geometry" />
        </mxCell>
        <mxCell id="G7UtKUlCrea1HoJt_iq_-77" value="" style="endArrow=none;html=1;rounded=0;fillColor=#e51400;strokeColor=#0D0000;strokeWidth=3;" parent="1" target="G7UtKUlCrea1HoJt_iq_-73" edge="1">
          <mxGeometry width="50" height="50" relative="1" as="geometry">
            <mxPoint x="545" y="595" as="sourcePoint" />
            <mxPoint x="517" y="617" as="targetPoint" />
          </mxGeometry>
        </mxCell>
        <mxCell id="G7UtKUlCrea1HoJt_iq_-86" value="&amp;nbsp;-12V&amp;nbsp;" style="edgeLabel;html=1;align=center;verticalAlign=middle;resizable=0;points=[];" parent="G7UtKUlCrea1HoJt_iq_-77" connectable="0" vertex="1">
          <mxGeometry x="0.1663" y="-1" relative="1" as="geometry">
            <mxPoint as="offset" />
          </mxGeometry>
        </mxCell>
        <mxCell id="G7UtKUlCrea1HoJt_iq_-79" value="" style="endArrow=none;html=1;rounded=0;strokeWidth=3;entryX=0.85;entryY=0.9;entryDx=0;entryDy=0;entryPerimeter=0;fillColor=#e51400;strokeColor=#FF0000;" parent="1" target="G7UtKUlCrea1HoJt_iq_-75" edge="1">
          <mxGeometry width="50" height="50" relative="1" as="geometry">
            <mxPoint x="545" y="553" as="sourcePoint" />
            <mxPoint x="455" y="516" as="targetPoint" />
            <Array as="points" />
          </mxGeometry>
        </mxCell>
        <mxCell id="G7UtKUlCrea1HoJt_iq_-85" value="&amp;nbsp;+12V&amp;nbsp;" style="edgeLabel;html=1;align=center;verticalAlign=middle;resizable=0;points=[];" parent="G7UtKUlCrea1HoJt_iq_-79" connectable="0" vertex="1">
          <mxGeometry x="0.2" relative="1" as="geometry">
            <mxPoint as="offset" />
          </mxGeometry>
        </mxCell>
        <mxCell id="G7UtKUlCrea1HoJt_iq_-88" value="DC power&lt;div&gt;output plug (M)&lt;/div&gt;" style="text;html=1;align=right;verticalAlign=middle;resizable=0;points=[];autosize=1;strokeColor=none;fillColor=none;" parent="1" vertex="1">
          <mxGeometry x="447.5" y="602" width="100" height="40" as="geometry" />
        </mxCell>
        <mxCell id="XM5FjCuDmPm9ycIdQVT2-2" value="" style="endArrow=none;html=1;rounded=0;strokeWidth=7;exitX=1;exitY=0.5;exitDx=0;exitDy=0;entryX=0;entryY=0.5;entryDx=0;entryDy=0;" edge="1" parent="1" source="XM5FjCuDmPm9ycIdQVT2-3" target="XM5FjCuDmPm9ycIdQVT2-6">
          <mxGeometry width="50" height="50" relative="1" as="geometry">
            <mxPoint x="610" y="576" as="sourcePoint" />
            <mxPoint x="690" y="536" as="targetPoint" />
            <Array as="points">
              <mxPoint x="640" y="550" />
            </Array>
          </mxGeometry>
        </mxCell>
        <mxCell id="XM5FjCuDmPm9ycIdQVT2-3" value="" style="shape=image;html=1;verticalAlign=top;verticalLabelPosition=bottom;labelBackgroundColor=#ffffff;imageAspect=0;aspect=fixed;image=https://cdn1.iconfinder.com/data/icons/bootstrap-vol-3/16/input-cursor-128.png;rotation=-360;" vertex="1" parent="1">
          <mxGeometry x="563" y="563" width="27" height="27" as="geometry" />
        </mxCell>
        <mxCell id="XM5FjCuDmPm9ycIdQVT2-4" value="" style="endArrow=none;html=1;rounded=0;strokeWidth=7;exitX=1;exitY=0.5;exitDx=0;exitDy=0;entryX=0;entryY=0.5;entryDx=0;entryDy=0;" edge="1" parent="1" source="XM5FjCuDmPm9ycIdQVT2-3" target="XM5FjCuDmPm9ycIdQVT2-8">
          <mxGeometry width="50" height="50" relative="1" as="geometry">
            <mxPoint x="607" y="587" as="sourcePoint" />
            <mxPoint x="690" y="600" as="targetPoint" />
          </mxGeometry>
        </mxCell>
        <mxCell id="XM5FjCuDmPm9ycIdQVT2-5" value="Y cable&lt;div&gt;F end&lt;/div&gt;" style="text;html=1;align=center;verticalAlign=middle;resizable=0;points=[];autosize=1;strokeColor=none;fillColor=none;" vertex="1" parent="1">
          <mxGeometry x="553.5" y="517" width="60" height="40" as="geometry" />
        </mxCell>
        <mxCell id="XM5FjCuDmPm9ycIdQVT2-6" value="" style="shape=image;html=1;verticalAlign=top;verticalLabelPosition=bottom;labelBackgroundColor=#ffffff;imageAspect=0;aspect=fixed;image=https://cdn1.iconfinder.com/data/icons/bootstrap-vol-3/16/input-cursor-128.png;rotation=-360;" vertex="1" parent="1">
          <mxGeometry x="690" y="526" width="27" height="27" as="geometry" />
        </mxCell>
        <mxCell id="XM5FjCuDmPm9ycIdQVT2-8" value="" style="shape=image;html=1;verticalAlign=top;verticalLabelPosition=bottom;labelBackgroundColor=#ffffff;imageAspect=0;aspect=fixed;image=https://cdn1.iconfinder.com/data/icons/bootstrap-vol-3/16/input-cursor-128.png;rotation=-360;" vertex="1" parent="1">
          <mxGeometry x="690" y="586" width="27" height="27" as="geometry" />
        </mxCell>
        <mxCell id="XM5FjCuDmPm9ycIdQVT2-10" value="Y cable&lt;div&gt;M end&lt;/div&gt;" style="text;html=1;align=center;verticalAlign=middle;resizable=0;points=[];autosize=1;strokeColor=none;fillColor=none;" vertex="1" parent="1">
          <mxGeometry x="673.5" y="486" width="60" height="40" as="geometry" />
        </mxCell>
        <mxCell id="XM5FjCuDmPm9ycIdQVT2-11" value="Y cable&lt;div&gt;M end&lt;/div&gt;" style="text;html=1;align=center;verticalAlign=middle;resizable=0;points=[];autosize=1;strokeColor=none;fillColor=none;" vertex="1" parent="1">
          <mxGeometry x="673.5" y="621" width="60" height="40" as="geometry" />
        </mxCell>
        <mxCell id="XM5FjCuDmPm9ycIdQVT2-12" value="to amp" style="text;html=1;align=center;verticalAlign=middle;resizable=0;points=[];autosize=1;strokeColor=none;fillColor=none;" vertex="1" parent="1">
          <mxGeometry x="717" y="584.5" width="60" height="30" as="geometry" />
        </mxCell>
        <mxCell id="XM5FjCuDmPm9ycIdQVT2-13" value="to keep-alive" style="text;html=1;align=center;verticalAlign=middle;resizable=0;points=[];autosize=1;strokeColor=none;fillColor=none;" vertex="1" parent="1">
          <mxGeometry x="717" y="524.5" width="90" height="30" as="geometry" />
        </mxCell>
        <mxCell id="XM5FjCuDmPm9ycIdQVT2-14" value="" style="shape=image;html=1;verticalAlign=top;verticalLabelPosition=bottom;labelBackgroundColor=#ffffff;imageAspect=0;aspect=fixed;image=https://cdn1.iconfinder.com/data/icons/bootstrap-vol-3/16/input-cursor-128.png;rotation=90;" vertex="1" parent="1">
          <mxGeometry x="328" y="145" width="27" height="27" as="geometry" />
        </mxCell>
        <mxCell id="XM5FjCuDmPm9ycIdQVT2-28" value="" style="group" vertex="1" connectable="0" parent="1">
          <mxGeometry x="5" y="207.5" width="98" height="199.5" as="geometry" />
        </mxCell>
        <mxCell id="XM5FjCuDmPm9ycIdQVT2-26" value="DC battery&lt;div&gt;power / charge&lt;/div&gt;&lt;div&gt;jack (F)&lt;/div&gt;" style="text;html=1;align=right;verticalAlign=middle;resizable=0;points=[];autosize=1;strokeColor=none;fillColor=none;rotation=-90;" vertex="1" parent="XM5FjCuDmPm9ycIdQVT2-28">
          <mxGeometry x="39" y="119.5" width="100" height="60" as="geometry" />
        </mxCell>
        <mxCell id="XM5FjCuDmPm9ycIdQVT2-27" value="" style="group" vertex="1" connectable="0" parent="XM5FjCuDmPm9ycIdQVT2-28">
          <mxGeometry x="26" width="98" height="92.5" as="geometry" />
        </mxCell>
        <mxCell id="XM5FjCuDmPm9ycIdQVT2-25" value="" style="rounded=0;whiteSpace=wrap;html=1;fillColor=#0A0A0A;" vertex="1" parent="XM5FjCuDmPm9ycIdQVT2-27">
          <mxGeometry x="5" y="30" width="80" height="62.5" as="geometry" />
        </mxCell>
        <mxCell id="WoF18aefavJoUWqvMgJQ-41" value="12V Battery" style="text;html=1;align=center;verticalAlign=middle;resizable=0;points=[];autosize=1;strokeColor=none;fillColor=none;" parent="XM5FjCuDmPm9ycIdQVT2-27" vertex="1">
          <mxGeometry width="90" height="30" as="geometry" />
        </mxCell>
        <mxCell id="XM5FjCuDmPm9ycIdQVT2-22" value="" style="shape=image;html=1;verticalAlign=top;verticalLabelPosition=bottom;labelBackgroundColor=#ffffff;imageAspect=0;aspect=fixed;image=https://cdn1.iconfinder.com/data/icons/bootstrap-vol-3/16/input-cursor-128.png;rotation=0;imageBackground=default;" vertex="1" parent="XM5FjCuDmPm9ycIdQVT2-27">
          <mxGeometry x="71" y="46.5" width="27" height="27" as="geometry" />
        </mxCell>
        <mxCell id="XM5FjCuDmPm9ycIdQVT2-41" value="" style="shape=image;html=1;verticalAlign=top;verticalLabelPosition=bottom;labelBackgroundColor=#ffffff;imageAspect=0;aspect=fixed;image=https://cdn1.iconfinder.com/data/icons/bootstrap-vol-3/16/input-cursor-128.png;rotation=-90;" vertex="1" parent="1">
          <mxGeometry x="314" y="665" width="27" height="27" as="geometry" />
        </mxCell>
        <mxCell id="XM5FjCuDmPm9ycIdQVT2-52" value="Secondary Battery&lt;div&gt;and Cable&lt;/div&gt;" style="text;html=1;align=center;verticalAlign=middle;resizable=0;points=[];autosize=1;strokeColor=none;fillColor=none;" vertex="1" parent="1">
          <mxGeometry x="30" y="460" width="120" height="40" as="geometry" />
        </mxCell>
        <mxCell id="XM5FjCuDmPm9ycIdQVT2-53" value="" style="group" vertex="1" connectable="0" parent="1">
          <mxGeometry x="9.999999999999996" y="600" width="197.86" height="175.5" as="geometry" />
        </mxCell>
        <mxCell id="XM5FjCuDmPm9ycIdQVT2-47" value="" style="group;rotation=90;" vertex="1" connectable="0" parent="XM5FjCuDmPm9ycIdQVT2-53">
          <mxGeometry x="33" y="-67.5" width="72" height="27" as="geometry" />
        </mxCell>
        <mxCell id="XM5FjCuDmPm9ycIdQVT2-43" value="" style="shape=image;html=1;verticalAlign=top;verticalLabelPosition=bottom;labelBackgroundColor=#ffffff;imageAspect=0;aspect=fixed;image=https://cdn1.iconfinder.com/data/icons/bootstrap-vol-3/16/input-cursor-128.png;rotation=-270;" vertex="1" parent="XM5FjCuDmPm9ycIdQVT2-47">
          <mxGeometry x="23" y="-22" width="27" height="27" as="geometry" />
        </mxCell>
        <mxCell id="XM5FjCuDmPm9ycIdQVT2-44" value="" style="endArrow=none;html=1;rounded=0;strokeWidth=7;exitX=1;exitY=0.5;exitDx=0;exitDy=0;entryX=0;entryY=0.5;entryDx=0;entryDy=0;" edge="1" source="XM5FjCuDmPm9ycIdQVT2-43" target="XM5FjCuDmPm9ycIdQVT2-45" parent="XM5FjCuDmPm9ycIdQVT2-47">
          <mxGeometry width="50" height="50" relative="1" as="geometry">
            <mxPoint x="26" y="22" as="sourcePoint" />
            <mxPoint x="13" y="105" as="targetPoint" />
          </mxGeometry>
        </mxCell>
        <mxCell id="XM5FjCuDmPm9ycIdQVT2-45" value="" style="shape=image;html=1;verticalAlign=top;verticalLabelPosition=bottom;labelBackgroundColor=#ffffff;imageAspect=0;aspect=fixed;image=https://cdn1.iconfinder.com/data/icons/bootstrap-vol-3/16/input-cursor-128.png;rotation=-270;" vertex="1" parent="XM5FjCuDmPm9ycIdQVT2-47">
          <mxGeometry x="23" y="23" width="27" height="27" as="geometry" />
        </mxCell>
        <mxCell id="XM5FjCuDmPm9ycIdQVT2-36" value="DC battery&lt;div&gt;power / charge&lt;/div&gt;&lt;div&gt;jack (F)&lt;/div&gt;" style="text;html=1;align=left;verticalAlign=middle;resizable=0;points=[];autosize=1;strokeColor=none;fillColor=none;rotation=0;" vertex="1" parent="XM5FjCuDmPm9ycIdQVT2-53">
          <mxGeometry x="107.86000000000001" y="-4.5" width="100" height="60" as="geometry" />
        </mxCell>
        <mxCell id="XM5FjCuDmPm9ycIdQVT2-38" value="" style="rounded=0;whiteSpace=wrap;html=1;fillColor=#0A0A0A;rotation=-90;" vertex="1" parent="XM5FjCuDmPm9ycIdQVT2-53">
          <mxGeometry x="31.000000000000004" y="7.5" width="80" height="62.5" as="geometry" />
        </mxCell>
        <mxCell id="XM5FjCuDmPm9ycIdQVT2-39" value="12V Battery" style="text;html=1;align=center;verticalAlign=middle;resizable=0;points=[];autosize=1;strokeColor=none;fillColor=none;rotation=-90;" vertex="1" parent="XM5FjCuDmPm9ycIdQVT2-53">
          <mxGeometry x="-19.999999999999996" y="25.5" width="90" height="30" as="geometry" />
        </mxCell>
        <mxCell id="XM5FjCuDmPm9ycIdQVT2-40" value="" style="shape=image;html=1;verticalAlign=top;verticalLabelPosition=bottom;labelBackgroundColor=#ffffff;imageAspect=0;aspect=fixed;image=https://cdn1.iconfinder.com/data/icons/bootstrap-vol-3/16/input-cursor-128.png;rotation=-90;imageBackground=default;" vertex="1" parent="XM5FjCuDmPm9ycIdQVT2-53">
          <mxGeometry x="56" y="-14.5" width="27" height="27" as="geometry" />
        </mxCell>
        <mxCell id="XM5FjCuDmPm9ycIdQVT2-50" value="DC plug (M)" style="text;html=1;align=center;verticalAlign=middle;resizable=0;points=[];autosize=1;strokeColor=none;fillColor=none;" vertex="1" parent="XM5FjCuDmPm9ycIdQVT2-53">
          <mxGeometry x="74" y="-46.5" width="90" height="30" as="geometry" />
        </mxCell>
        <mxCell id="XM5FjCuDmPm9ycIdQVT2-49" value="DC plug (M)" style="text;html=1;align=center;verticalAlign=middle;resizable=0;points=[];autosize=1;strokeColor=none;fillColor=none;" vertex="1" parent="XM5FjCuDmPm9ycIdQVT2-53">
          <mxGeometry x="74" y="-90" width="90" height="30" as="geometry" />
        </mxCell>
        <mxCell id="XM5FjCuDmPm9ycIdQVT2-54" value="" style="group" vertex="1" connectable="0" parent="1">
          <mxGeometry x="328" y="29.998874503045716" width="157" height="93.44112549695429" as="geometry" />
        </mxCell>
        <mxCell id="XM5FjCuDmPm9ycIdQVT2-15" value="" style="shape=image;html=1;verticalAlign=top;verticalLabelPosition=bottom;labelBackgroundColor=#ffffff;imageAspect=0;aspect=fixed;image=https://cdn1.iconfinder.com/data/icons/bootstrap-vol-3/16/input-cursor-128.png;rotation=90;" vertex="1" parent="XM5FjCuDmPm9ycIdQVT2-54">
          <mxGeometry y="64.94112549695429" width="27" height="27" as="geometry" />
        </mxCell>
        <mxCell id="XM5FjCuDmPm9ycIdQVT2-17" value="" style="shape=image;html=1;verticalAlign=top;verticalLabelPosition=bottom;labelBackgroundColor=#ffffff;imageAspect=0;aspect=fixed;image=https://cdn0.iconfinder.com/data/icons/phosphor-fill-vol-4/256/plug-fill-128.png;rotation=45;" vertex="1" parent="XM5FjCuDmPm9ycIdQVT2-54">
          <mxGeometry x="37.860000000000014" y="9.941125496954285" width="48" height="48" as="geometry" />
        </mxCell>
        <mxCell id="XM5FjCuDmPm9ycIdQVT2-18" value="" style="endArrow=none;html=1;rounded=0;exitX=0;exitY=0.5;exitDx=0;exitDy=0;entryX=0;entryY=1;entryDx=0;entryDy=0;strokeWidth=7;" edge="1" parent="XM5FjCuDmPm9ycIdQVT2-54" source="XM5FjCuDmPm9ycIdQVT2-15" target="XM5FjCuDmPm9ycIdQVT2-17">
          <mxGeometry width="50" height="50" relative="1" as="geometry">
            <mxPoint x="492" y="389.94112549695427" as="sourcePoint" />
            <mxPoint x="542" y="339.94112549695427" as="targetPoint" />
            <Array as="points">
              <mxPoint x="13" y="33.941125496954285" />
            </Array>
          </mxGeometry>
        </mxCell>
        <mxCell id="XM5FjCuDmPm9ycIdQVT2-19" value="to DC charger (M)" style="text;html=1;align=left;verticalAlign=middle;resizable=0;points=[];autosize=1;strokeColor=none;fillColor=none;" vertex="1" parent="XM5FjCuDmPm9ycIdQVT2-54">
          <mxGeometry x="37" y="63.441125496954285" width="120" height="30" as="geometry" />
        </mxCell>
        <mxCell id="XM5FjCuDmPm9ycIdQVT2-55" value="BCC1" style="text;html=1;align=center;verticalAlign=middle;resizable=0;points=[];autosize=1;strokeColor=none;fillColor=none;fontSize=17;" vertex="1" parent="1">
          <mxGeometry x="366" y="258.5" width="70" height="30" as="geometry" />
        </mxCell>
        <mxCell id="XM5FjCuDmPm9ycIdQVT2-56" value="BCC2" style="text;html=1;align=center;verticalAlign=middle;resizable=0;points=[];autosize=1;strokeColor=none;fillColor=none;fontSize=15;" vertex="1" parent="1">
          <mxGeometry x="220" y="550" width="60" height="30" as="geometry" />
        </mxCell>
        <mxCell id="XM5FjCuDmPm9ycIdQVT2-58" value="IN&lt;br&gt;connectors" style="text;html=1;align=center;verticalAlign=middle;resizable=0;points=[];autosize=1;strokeColor=none;fillColor=none;rotation=0;" vertex="1" parent="1">
          <mxGeometry x="355" y="322" width="80" height="40" as="geometry" />
        </mxCell>
        <mxCell id="XM5FjCuDmPm9ycIdQVT2-59" value="IN&lt;br&gt;connectors" style="text;html=1;align=center;verticalAlign=middle;resizable=0;points=[];autosize=1;strokeColor=none;fillColor=none;rotation=0;" vertex="1" parent="1">
          <mxGeometry x="361" y="192" width="80" height="40" as="geometry" />
        </mxCell>
      </root>
    </mxGraphModel>
  </diagram>
</mxfile>
